<svg width="4400" height="620" xmlns="http://www.w3.org/2000/svg" xmlns:xlink="http://www.w3.org/1999/xlink" xml:space="preserve" overflow="hidden"><defs><clipPath id="clip0"><rect x="0" y="1855" width="4400" height="620"/></clipPath></defs><g clip-path="url(#clip0)" transform="matrix(1 0 0 1 0 -1855)"><rect x="0" y="2000" width="4362" height="475" fill="#434343"/><path d="M0 1888.83C-8.24356e-15 1870.15 15.148 1855 33.8341 1855L169.166 1855C187.852 1855 203 1870.15 203 1888.83L203 2080.17C203 2098.85 187.852 2114 169.166 2114L33.8341 2114C15.148 2114-4.12178e-15 2098.85-4.12178e-15 2080.17Z" fill="#434343" fill-rule="evenodd"/><path d="M496 1888.67C496 1870.07 511.073 1855 529.668 1855L664.333 1855C682.927 1855 698 1870.07 698 1888.67L698 2080.33C698 2098.93 682.927 2114 664.333 2114L529.668 2114C511.073 2114 496 2098.93 496 2080.33Z" fill="#434343" fill-rule="evenodd"/><path d="M991 1888.83C991 1870.15 1006.15 1855 1024.83 1855L1160.17 1855C1178.85 1855 1194 1870.15 1194 1888.83L1194 2080.17C1194 2098.85 1178.85 2114 1160.17 2114L1024.83 2114C1006.15 2114 991 2098.85 991 2080.17Z" fill="#434343" fill-rule="evenodd"/><path d="M1487 1888.83C1487 1870.15 1502.15 1855 1520.83 1855L1656.17 1855C1674.85 1855 1690 1870.15 1690 1888.83L1690 2080.17C1690 2098.85 1674.85 2114 1656.17 2114L1520.83 2114C1502.15 2114 1487 2098.85 1487 2080.17Z" fill="#434343" fill-rule="evenodd"/><path d="M1983 1888.67C1983 1870.07 1998.07 1855 2016.67 1855L2151.33 1855C2169.93 1855 2185 1870.07 2185 1888.67L2185 2080.33C2185 2098.93 2169.93 2114 2151.33 2114L2016.67 2114C1998.07 2114 1983 2098.93 1983 2080.33Z" fill="#434343" fill-rule="evenodd"/><path d="M2478 1888.83C2478 1870.15 2493.15 1855 2511.83 1855L2647.17 1855C2665.85 1855 2681 1870.15 2681 1888.83L2681 2080.17C2681 2098.85 2665.85 2114 2647.17 2114L2511.83 2114C2493.15 2114 2478 2098.85 2478 2080.17Z" fill="#434343" fill-rule="evenodd"/><path d="M2974 1888.83C2974 1870.15 2989.15 1855 3007.83 1855L3143.17 1855C3161.85 1855 3177 1870.15 3177 1888.83L3177 2080.17C3177 2098.85 3161.85 2114 3143.17 2114L3007.83 2114C2989.15 2114 2974 2098.85 2974 2080.17Z" fill="#434343" fill-rule="evenodd"/><path d="M3470 1888.67C3470 1870.07 3485.07 1855 3503.67 1855L3638.33 1855C3656.93 1855 3672 1870.07 3672 1888.67L3672 2080.33C3672 2098.93 3656.93 2114 3638.33 2114L3503.67 2114C3485.07 2114 3470 2098.93 3470 2080.33Z" fill="#434343" fill-rule="evenodd"/><path d="M3965 1888.83C3965 1870.15 3980.15 1855 3998.83 1855L4134.17 1855C4152.85 1855 4168 1870.15 4168 1888.83L4168 2080.17C4168 2098.85 4152.85 2114 4134.17 2114L3998.83 2114C3980.15 2114 3965 2098.85 3965 2080.17Z" fill="#434343" fill-rule="evenodd"/><path d="M4197 2033.83C4197 2015.15 4212.15 2000 4230.83 2000L4366.17 2000C4384.85 2000 4400 2015.15 4400 2033.83L4400 2441.17C4400 2459.85 4384.85 2475 4366.17 2475L4230.83 2475C4212.15 2475 4197 2459.85 4197 2441.17Z" fill="#434343" fill-rule="evenodd"/></g></svg>